# xmcd
#
# Track frame offsets:
#	150
#	10183
#	20983
#	30316
#	40104
#	51199
#	60079
#	72700
#	85217
#	96302
#	104665
#	114816
#	125443
#	136828
#	145126
#	156112
#	166715
#	176239
#	188140
#	199496
#	209579
#	219682
#	229895
#	240540
#	249073
#	259232
#	268975
#	281200
#	290442
#	298015
#	308351
#	317671
#	331269
#	340486
#	350533
#	361305
#
# Disc length: 4964 seconds
# Revision: 5
# Processed by: cddbd v1.5.2PL0 Copyright (c) Steve Scherf et al.
# Submitted via: dBpowerAMP V12.0
#
DISCID=2c136224
DTITLE=Buck Owens - Open Up Your Heart: The Buck Owens and the Buckaroos Recordings 1965-1968, CD01 - CD07
DYEAR=2010
DGENRE=Country
TTITLE0=Before You Go
TTITLE1=Getting Used to Loving You
TTITLE2=(I Want) No One But You
TTITLE3=Number One Heel
TTITLE4=Raz-Ma-Taz Polka
TTITLE5=I Betcha Didn't Know
TTITLE6=No Fool Like an Old Fool
TTITLE7=If You Want a Love
TTITLE8=Charlie Brown
TTITLE9=Steel Guitar Rag
TTITLE10=Gonna Roll Out the Red Carpet
TTITLE11=Only You (Can Break My Heart)
TTITLE12=Country Rag
TTITLE13=Bile 'Em Cabbage Down
TTITLE14=Hangin' on to What I Got
TTITLE15=Someone with No One to Love
TTITLE16=Buckaroo
TTITLE17=Faded Love
TTITLE18=Blue Christmas Tree
TTITLE19=Because It's Christmas Time
TTITLE20=All I Want for Christmas is You
TTITLE21=Santa Looked a Lot Like Daddy (Daddy Looked a Lot Like Him)
TTITLE22=Christmas Ain't Christmas
TTITLE23=Christmas Time's A-Comin'
TTITLE24=It's Christmas Time for Everyone But Me
TTITLE25=Here Comes Santa Claus Again
TTITLE26=Blue Christmas Lights
TTITLE27=Santa's Gonna Come in a Stagecoach
TTITLE28=Christmas Morning
TTITLE29=Jingle Bells
TTITLE30=We Split the Blanket
TTITLE31=He Don't Deserve You Anymore
TTITLE32=Sam's Place
TTITLE33=Heart Of Glass
TTITLE34=(I'll Love You) Forever and Ever
TTITLE35=I'm Layin' It on the Line
EXTD=
EXTT0=
EXTT1=
EXTT2=
EXTT3=
EXTT4=
EXTT5=
EXTT6=
EXTT7=
EXTT8=
EXTT9=
EXTT10=
EXTT11=
EXTT12=
EXTT13=
EXTT14=
EXTT15=
EXTT16=
EXTT17=
EXTT18=
EXTT19=
EXTT20=
EXTT21=
EXTT22=
EXTT23=
EXTT24=
EXTT25=
EXTT26=
EXTT27=
EXTT28=
EXTT29=
EXTT30=
EXTT31=
EXTT32=
EXTT33=
EXTT34=
EXTT35=
PLAYORDER=
